<svg width="15" height="16" viewBox="0 0 15 16" fill="none" xmlns="http://www.w3.org/2000/svg">
<path fill-rule="evenodd" clip-rule="evenodd" d="M10.736 0.846296C10.7016 0.590895 10.4843 0.394043 10.2215 0.394043C9.9347 0.394043 9.70224 0.628313 9.70224 0.917299V1.49582H5.14811V0.917299L5.14337 0.846296C5.10899 0.590895 4.89174 0.394043 4.62888 0.394043C4.34212 0.394043 4.10965 0.628313 4.10965 0.917299V1.50881C1.98191 1.65535 0.671997 3.03399 0.671997 5.2584V11.5721C0.671997 13.9595 2.14075 15.3941 4.49419 15.3941H10.3497C12.706 15.3941 14.1719 13.9835 14.1719 11.6249V5.2584C14.1787 3.03321 12.873 1.65495 10.7407 1.50875V0.917299L10.736 0.846296ZM9.70224 2.54231V3.21319L9.70698 3.28419C9.74136 3.5396 9.9586 3.73645 10.2215 3.73645C10.5082 3.73645 10.7407 3.50218 10.7407 3.21319V2.55778C12.2921 2.68686 13.1385 3.6211 13.1335 5.25677V5.5598H1.71045V5.25838C1.71045 3.62372 2.56143 2.68751 4.10965 2.55788V3.21319L4.11439 3.28419C4.14877 3.5396 4.36601 3.73645 4.62888 3.73645C4.91564 3.73645 5.14811 3.50218 5.14811 3.21319V2.54231H9.70224ZM1.71045 6.60631V11.5721C1.71045 13.374 2.70713 14.3475 4.49418 14.3475H10.3497C12.1429 14.3475 13.1335 13.3944 13.1335 11.6249L13.1335 6.60631H1.71045ZM11.0229 8.80779C11.0229 8.5188 10.7904 8.28453 10.5037 8.28453L10.4268 8.28931C10.1734 8.32396 9.97803 8.54289 9.97803 8.80779C9.97803 9.09678 10.2105 9.33105 10.5037 9.33105L10.5741 9.32627C10.8276 9.29162 11.0229 9.07269 11.0229 8.80779ZM7.43159 8.28453C7.71835 8.28453 7.95082 8.5188 7.95082 8.80779C7.95082 9.07269 7.75548 9.29162 7.50204 9.32627L7.43159 9.33105C7.13841 9.33105 6.90594 9.09678 6.90594 8.80779C6.90594 8.54289 7.10128 8.32396 7.35472 8.28931L7.43159 8.28453ZM4.87231 8.80779C4.87231 8.5188 4.63984 8.28453 4.35308 8.28453L4.27621 8.28931C4.02278 8.32396 3.82744 8.54289 3.82744 8.80779C3.82744 9.09678 4.05991 9.33105 4.34667 9.33105L4.42354 9.32627C4.67697 9.29162 4.87231 9.07269 4.87231 8.80779ZM10.5037 10.9961C10.7904 10.9961 11.0229 11.2303 11.0229 11.5193C11.0229 11.7842 10.8276 12.0032 10.5741 12.0378L10.5037 12.0426C10.2105 12.0426 9.97803 11.8083 9.97803 11.5193C9.97803 11.2544 10.1734 11.0355 10.4268 11.0008L10.5037 10.9961ZM7.95082 11.5193C7.95082 11.2303 7.71835 10.9961 7.43159 10.9961L7.35472 11.0008C7.10128 11.0355 6.90594 11.2544 6.90594 11.5193C6.90594 11.8083 7.13841 12.0426 7.43159 12.0426L7.50204 12.0378C7.75548 12.0032 7.95082 11.7842 7.95082 11.5193ZM4.35308 10.9961C4.63984 10.9961 4.87231 11.2303 4.87231 11.5193C4.87231 11.7842 4.67697 12.0032 4.42354 12.0378L4.34667 12.0426C4.05991 12.0426 3.82744 11.8083 3.82744 11.5193C3.82744 11.2544 4.02278 11.0355 4.27621 11.0008L4.35308 10.9961Z" fill="#546681"/>
</svg>
