<svg width="18" height="21" viewBox="0 0 18 21" fill="none" xmlns="http://www.w3.org/2000/svg">
<path d="M4 11.5C4 10.9477 4.44772 10.5 5 10.5H13C13.5523 10.5 14 10.9477 14 11.5C14 12.0523 13.5523 12.5 13 12.5H5C4.44772 12.5 4 12.0523 4 11.5Z" fill="#A6A9C2"/>
<path fill-rule="evenodd" clip-rule="evenodd" d="M14 2.5H16C17.103 2.5 18 3.397 18 4.5V18.5C18 19.603 17.103 20.5 16 20.5H2C0.897 20.5 0 19.603 0 18.5V4.5C0 3.397 0.897 2.5 2 2.5H4V1.5C4 0.947715 4.44772 0.5 5 0.5C5.55228 0.5 6 0.947715 6 1.5V2.5H12V1.5C12 0.947715 12.4477 0.5 13 0.5C13.5523 0.5 14 0.947715 14 1.5V2.5ZM2 8.5V18.5H16.002L16.0006 8.5H2ZM2 6.5H16V4.5H2V6.5Z" fill="#A6A9C2"/>
</svg>
