<svg width="18" height="18" viewBox="0 0 18 18" fill="none" xmlns="http://www.w3.org/2000/svg">
<path d="M9 1.5C4.8645 1.5 1.5 4.8645 1.5 9C1.5 13.1355 4.8645 16.5 9 16.5C13.1355 16.5 16.5 13.1355 16.5 9C16.5 4.8645 13.1355 1.5 9 1.5ZM9 15C5.69175 15 3 12.3082 3 9C3 5.69175 5.69175 3 9 3C12.3082 3 15 5.69175 15 9C15 12.3082 12.3082 15 9 15Z" fill="#4B4FE4"/>
<path d="M9.75 6.375C9.75 5.96079 9.41421 5.625 9 5.625C8.58579 5.625 8.25 5.96079 8.25 6.375V10.125H12C12.4142 10.125 12.75 9.78921 12.75 9.375C12.75 8.96079 12.4142 8.625 12 8.625H9.75V6.375Z" fill="#4B4FE4"/>
</svg>
