<svg width="16" height="17" viewBox="0 0 16 17" fill="none" xmlns="http://www.w3.org/2000/svg">
<path d="M3.64548 10.4815C3.64548 11.3515 2.93823 12.0617 2.06823 12.0617C1.19973 12.0617 0.490234 11.3515 0.490234 10.4815C0.490234 9.61147 1.19973 8.90197 2.06823 8.90197H3.64548V10.4815ZM4.44123 10.4815C4.44123 9.61147 5.14923 8.90197 6.01923 8.90197C6.88623 8.90197 7.59648 9.61147 7.59648 10.4815V14.437C7.59648 15.307 6.88698 16.0165 6.01923 16.0165C5.14923 16.0165 4.44123 15.307 4.44123 14.437V10.4815ZM6.01923 4.14022C5.14923 4.14022 4.44123 3.42922 4.44123 2.55997C4.44123 1.69072 5.14923 0.980469 6.01923 0.980469C6.88623 0.980469 7.59648 1.68997 7.59648 2.55997V4.14022H6.01923ZM6.01923 4.93522C6.88623 4.93522 7.59648 5.64547 7.59648 6.51547C7.59648 7.38547 6.88698 8.09497 6.01923 8.09497H2.06898C1.20048 8.09497 0.490984 7.38547 0.490984 6.51547C0.490984 5.64547 1.20048 4.93522 2.06898 4.93522H6.01923ZM12.3545 6.51547C12.3545 5.64547 13.0617 4.93522 13.9317 4.93522C14.8002 4.93522 15.5097 5.64547 15.5097 6.51547C15.5097 7.38547 14.8002 8.09497 13.9317 8.09497H12.3545V6.51547ZM11.5587 6.51547C11.5587 7.38547 10.8507 8.09497 9.98073 8.09497C9.11373 8.09497 8.40348 7.38547 8.40348 6.51547V2.55997C8.40348 1.68997 9.11298 0.980469 9.98073 0.980469C10.8507 0.980469 11.5587 1.68997 11.5587 2.55997V6.51547ZM9.98073 12.8567C10.8507 12.8567 11.5587 13.5677 11.5587 14.437C11.5587 15.3062 10.8507 16.0165 9.98073 16.0165C9.11373 16.0165 8.40348 15.307 8.40348 14.437V12.8567H9.98073ZM9.98073 12.0617C9.11373 12.0617 8.40348 11.3515 8.40348 10.4815C8.40348 9.61147 9.11298 8.90197 9.98073 8.90197H13.9317C14.8002 8.90197 15.5097 9.61147 15.5097 10.4815C15.5097 11.3515 14.8002 12.0617 13.9317 12.0617H9.98073Z" fill="#4B4FE4"/>
</svg>
