<svg width="13" height="21" viewBox="0 0 13 21" fill="none" xmlns="http://www.w3.org/2000/svg">
<path d="M10.7226 6.0528C11.0193 6.51862 11.4458 7 11.998 7C12.5503 7 13.0142 6.54469 12.876 6.00998C12.3192 3.85589 9.96321 2.83185 7.99805 2.571V1.5C7.99805 0.947716 7.55033 0.5 6.99805 0.5C6.44576 0.5 5.99805 0.947715 5.99805 1.5V2.571C3.75305 2.869 0.998047 4.163 0.998047 7C0.998047 9.706 3.66405 11.113 5.99805 11.43V16.4C4.92329 16.2137 3.79123 15.7398 3.27904 14.9452C2.97981 14.481 2.55033 14 1.99805 14C1.44576 14 0.982673 14.4559 1.12484 14.9895C1.65501 16.9797 3.7704 18.1618 5.99805 18.436V19.499C5.99805 20.0513 6.44576 20.5 6.99805 20.5C7.55033 20.5 7.99805 20.0513 7.99805 19.499V18.43C10.243 18.132 12.998 16.837 12.998 14C12.998 11.163 10.243 9.869 7.99805 9.571V4.6C8.99946 4.77995 10.1936 5.22239 10.7226 6.0528ZM2.99805 7C2.99805 5.541 4.66805 4.839 5.99805 4.6V9.399C4.62705 9.146 2.99805 8.397 2.99805 7ZM10.998 14C10.998 15.459 9.32805 16.161 7.99805 16.4V11.6C9.32805 11.839 10.998 12.541 10.998 14Z" fill="#A6A9C2"/>
</svg>
