<svg width="20" height="21" viewBox="0 0 20 21" fill="none" xmlns="http://www.w3.org/2000/svg">
<path d="M11 18.438C13.0173 18.1813 14.8611 17.1661 16.1568 15.5988C17.4525 14.0314 18.1027 12.0295 17.9754 9.99997C17.848 7.97041 16.9527 6.06549 15.4713 4.67238C13.9898 3.27927 12.0336 2.50252 10 2.5C7.96396 2.49848 6.00395 3.27334 4.51934 4.66668C3.03473 6.06002 2.13724 7.96699 2.00974 9.99904C1.88225 12.0311 2.53434 14.0353 3.83314 15.6033C5.13195 17.1712 6.97974 18.185 9 18.438V12.5H7V10.5H9V8.846C9 7.509 9.14 7.024 9.4 6.535C9.65611 6.05119 10.052 5.65569 10.536 5.4C10.918 5.195 11.393 5.072 12.223 5.019C12.552 4.998 12.978 5.024 13.501 5.099V6.999H13C12.083 6.999 11.704 7.042 11.478 7.163C11.3431 7.23236 11.2334 7.34215 11.164 7.477C11.044 7.703 11 7.927 11 8.845V10.5H13.5L13 12.5H11V18.438ZM10 20.5C4.477 20.5 0 16.023 0 10.5C0 4.977 4.477 0.5 10 0.5C15.523 0.5 20 4.977 20 10.5C20 16.023 15.523 20.5 10 20.5Z" fill="#A6A9C2"/>
</svg>
