<svg width="19" height="19" viewBox="0 0 19 19" fill="none" xmlns="http://www.w3.org/2000/svg">
<path fill-rule="evenodd" clip-rule="evenodd" d="M0.310547 9.72785C0.310547 4.63136 4.34067 0.5 9.31062 0.5C14.281 0.5 18.3105 4.63136 18.3105 9.72785C18.3105 13.8036 15.735 17.2614 12.161 18.4829C11.7048 18.5735 11.5428 18.2858 11.5428 18.0402C11.5428 17.9395 11.5439 17.7631 11.5454 17.5273V17.5272V17.5271V17.527V17.5269V17.5268V17.5267C11.5485 17.0507 11.5532 16.3331 11.5532 15.5079C11.5532 14.6469 11.2655 14.0854 10.9427 13.799C12.9468 13.5706 15.0523 12.7902 15.0523 9.24589C15.0523 8.23842 14.7031 7.41524 14.126 6.76901C14.2195 6.53658 14.5277 5.59803 14.0378 4.32696C14.0378 4.32696 13.2831 4.07895 11.5653 5.27285C10.846 5.06839 10.0755 4.96586 9.31062 4.96234C8.54576 4.96586 7.77583 5.06839 7.05792 5.27285C5.33803 4.07895 4.58226 4.32696 4.58226 4.32696C4.09356 5.59803 4.40163 6.53658 4.49507 6.76901C3.91934 7.41524 3.56776 8.23842 3.56776 9.24589C3.56776 12.7818 5.66919 13.573 7.66823 13.8063C7.41084 14.0368 7.1776 14.4439 7.09682 15.0403C6.58324 15.2761 5.2805 15.6839 4.47778 14.2732C4.47778 14.2732 4.00191 13.3873 3.09814 13.3222C3.09814 13.3222 2.22001 13.3105 3.03659 13.8832C3.03659 13.8832 3.62648 14.1668 4.03589 15.2334C4.03589 15.2334 4.56423 16.8804 7.06806 16.3222C7.07016 16.7413 7.07359 17.1473 7.07628 17.466L7.07628 17.4662C7.07854 17.7338 7.08028 17.9398 7.08028 18.0402C7.08028 18.284 6.91514 18.5696 6.46535 18.4841C2.88934 17.264 0.310547 13.805 0.310547 9.72785ZM3.5919 13.7139C3.65587 13.7451 3.72608 13.7314 3.74587 13.6861C3.76848 13.6405 3.73129 13.578 3.66598 13.5482C3.60097 13.5169 3.53061 13.5299 3.51127 13.5767C3.49015 13.6222 3.52674 13.6841 3.5919 13.7139ZM4.10974 14.0986C4.06689 14.139 3.98314 14.1203 3.92631 14.0564C3.86755 13.9927 3.85655 13.9075 3.89998 13.8665C3.94417 13.8261 4.02539 13.845 4.0843 13.9087C4.14306 13.9732 4.15451 14.0578 4.10974 14.0986ZM4.26325 14.5458C4.31888 14.6271 4.40888 14.6636 4.46393 14.6247C4.52016 14.5849 4.52016 14.4874 4.46527 14.4048C4.40889 14.3242 4.32022 14.2891 4.26444 14.3281C4.20821 14.3672 4.20821 14.4646 4.26325 14.5458ZM4.94918 15.1332C4.89994 15.1885 4.79507 15.1736 4.71831 15.0983C4.63976 15.0246 4.6179 14.92 4.66728 14.8648C4.71712 14.8094 4.82259 14.825 4.89994 14.8998C4.97789 14.9733 5.0017 15.0786 4.94918 15.1332ZM5.39413 15.5021C5.49588 15.5325 5.59689 15.4999 5.61861 15.4284C5.63973 15.3556 5.57309 15.2724 5.47163 15.2412C5.36914 15.2087 5.26768 15.2426 5.24656 15.3146C5.22603 15.3869 5.29252 15.4707 5.39413 15.5021ZM6.35378 15.4832C6.35631 15.5586 6.27003 15.621 6.16322 15.6224C6.05582 15.6248 5.96894 15.5638 5.96775 15.4897C5.96775 15.4136 6.0521 15.3517 6.1595 15.3499C6.26631 15.3478 6.35378 15.4083 6.35378 15.4832ZM6.87043 15.534C6.9765 15.5139 7.05073 15.4384 7.03794 15.3648C7.0244 15.2901 6.92934 15.2459 6.82313 15.2647C6.71899 15.2842 6.64342 15.3597 6.65637 15.4351C6.66961 15.508 6.76615 15.5534 6.87043 15.534Z" fill="white"/>
</svg>
