<svg width="18" height="19" viewBox="0 0 18 19" fill="none" xmlns="http://www.w3.org/2000/svg">
<path d="M9.0006 4.10299C10.6536 4.10299 11.7686 4.817 12.4044 5.41364L14.8887 2.98796C13.3629 1.56972 11.3774 0.699219 9.0006 0.699219C5.55771 0.699219 2.5843 2.67497 1.13672 5.55057L3.98298 7.76107C4.69699 5.6386 6.67274 4.10299 9.0006 4.10299Z" fill="#EA4335"/>
<path d="M17.4507 9.69813C17.4507 8.97434 17.3921 8.44617 17.2649 7.89844H9V11.1653H13.8514C13.7535 11.9771 13.2254 13.1997 12.0517 14.0213L14.8294 16.1731C16.4922 14.6375 17.4507 12.3781 17.4507 9.69813Z" fill="#4285F4"/>
<path d="M3.99227 11.2433C3.80644 10.6956 3.69885 10.1087 3.69885 9.50229C3.69885 8.89587 3.80644 8.30901 3.98249 7.76128L1.13624 5.55078C0.539599 6.74406 0.197266 8.08405 0.197266 9.50229C0.197266 10.9205 0.539599 12.2605 1.13624 13.4538L3.99227 11.2433Z" fill="#FBBC05"/>
<path d="M9.00059 18.304C11.3774 18.304 13.3727 17.5216 14.83 16.1718L12.0522 14.02C11.3089 14.5384 10.3112 14.9003 9.00059 14.9003C6.67272 14.9003 4.69697 13.3647 3.99274 11.2422L1.14648 13.4527C2.59407 16.3283 5.55769 18.304 9.00059 18.304Z" fill="#34A853"/>
</svg>
