<svg width="19" height="19" viewBox="0 0 19 19" fill="none" xmlns="http://www.w3.org/2000/svg">
<path fill-rule="evenodd" clip-rule="evenodd" d="M4.68529 3.14558C4.68529 4.23189 3.86759 5.10111 2.55466 5.10111H2.53059C1.26646 5.10111 0.449219 4.23189 0.449219 3.14558C0.449219 2.0363 1.29135 1.19141 2.57947 1.19141C3.86759 1.19141 4.66085 2.0363 4.68529 3.14558ZM4.43724 6.64558V17.9591H0.671827V6.64558H4.43724ZM18.0167 17.9588L18.0168 11.472C18.0168 7.99696 16.1592 6.37963 13.6814 6.37963C11.6822 6.37963 10.7872 7.47772 10.2874 8.24805V6.64559H6.52155C6.57118 7.70719 6.52155 17.9591 6.52155 17.9591H10.2874V11.6407C10.2874 11.3026 10.3119 10.9653 10.4114 10.7232C10.6835 10.0477 11.3032 9.34832 12.3434 9.34832C13.7065 9.34832 14.2514 10.3857 14.2514 11.9061V17.9588H18.0167Z" fill="white"/>
</svg>
