<svg width="14" height="19" viewBox="0 0 14 19" fill="none" xmlns="http://www.w3.org/2000/svg">
<path d="M10 7.5C10 9.15685 8.65685 10.5 7 10.5C5.34315 10.5 4 9.15685 4 7.5C4 5.84315 5.34315 4.5 7 4.5C8.65685 4.5 10 5.84315 10 7.5Z" fill="#A6A9C2"/>
<path fill-rule="evenodd" clip-rule="evenodd" d="M0 7.5C0 12.75 7 18.5 7 18.5C7 18.5 14 12.75 14 7.5C14 3.63 10.87 0.5 7 0.5C3.13 0.5 0 3.63 0 7.5ZM2 7.5C2 4.73457 4.23457 2.5 7 2.5C9.76543 2.5 12 4.73457 12 7.5C12 9.3607 10.6843 11.6296 8.96544 13.6861C8.27139 14.5165 7.57324 15.2402 7 15.7974C6.42676 15.2402 5.72861 14.5165 5.03456 13.6861C3.31569 11.6296 2 9.3607 2 7.5Z" fill="#A6A9C2"/>
</svg>
