<svg width="110" height="28" viewBox="0 0 110 28" fill="none" xmlns="http://www.w3.org/2000/svg">
<path d="M15.5269 19.8016H7.65856L6.50453 23.4428H0L8.65522 1.11719H14.5827L23.4216 23.4428H16.7334L15.5269 19.8016ZM11.619 7.97433L9.20601 14.8846H14.032L11.619 7.97433Z" fill="#0A1F44"/>
<path d="M24.5762 0H30.425V23.4419H24.5762V0Z" fill="#0A1F44"/>
<path d="M33.2047 15.9463V6.21875H39.0536V15.7869C39.0536 17.5942 39.9978 18.6573 41.6764 18.6573C43.355 18.6573 44.2992 17.5942 44.2992 15.7869V6.21875H49.8333V15.9463C49.8677 17.0465 49.6708 18.1416 49.2557 19.1587C48.8405 20.1759 48.2166 21.092 47.4253 21.8461C46.634 22.6002 45.6934 23.1751 44.6661 23.5326C43.6387 23.8901 42.5481 24.0221 41.4665 23.9197C40.3934 24.0062 39.3142 23.8624 38.2996 23.4977C37.2849 23.133 36.3576 22.5556 35.578 21.8032C34.7984 21.0509 34.1841 20.1404 33.7752 19.1312C33.3662 18.122 33.1719 17.0368 33.2047 15.9463Z" fill="#0A1F44"/>
<path d="M69.5046 12.9449V23.5762H63.6558V13.7423C63.6558 11.7489 62.8952 10.7655 61.4264 10.7655C59.9577 10.7655 58.5676 12.0413 58.5676 14.2473V23.4433H52.7188V6.22069H56.8103L57.7021 7.97484C58.3699 7.24315 59.1819 6.66164 60.0855 6.26792C60.9891 5.87419 61.9641 5.67701 62.9476 5.68913C63.8667 5.66833 64.7796 5.8468 65.6251 6.21259C66.4706 6.57838 67.2292 7.12304 67.8501 7.81008C68.4709 8.49712 68.9397 9.31069 69.2251 10.1963C69.5105 11.0819 69.6058 12.019 69.5046 12.9449Z" fill="#0A1F44"/>
<path d="M89.1751 12.9448V23.576H83.2476V13.7421C83.2476 11.7488 82.5132 10.7654 81.0444 10.7654C79.5757 10.7654 78.1594 12.0411 78.1594 14.2471V23.4431H72.3105V6.22053H76.4283L77.2152 8.00126C77.8841 7.27088 78.6962 6.69025 79.5996 6.29663C80.5029 5.90301 81.4775 5.70508 82.4608 5.71555C83.3916 5.66726 84.3216 5.82472 85.1863 6.17703C86.0511 6.52934 86.8299 7.06806 87.4686 7.75582C88.1074 8.44358 88.5909 9.26392 88.8856 10.1599C89.1802 11.056 89.279 12.0062 89.1751 12.9448Z" fill="#0A1F44"/>
<path d="M109.999 6.1938V23.4164H105.488L104.911 22.1938C103.426 23.402 101.569 24.0418 99.6653 24.0011C98.4728 24.0355 97.2861 23.8198 96.1798 23.3673C95.0735 22.9149 94.0714 22.2356 93.2365 21.3721C92.4016 20.5085 91.7519 19.4794 91.3281 18.3493C90.9043 17.2192 90.7157 16.0126 90.774 14.8051C90.719 13.6022 90.9104 12.4007 91.3364 11.2765C91.7624 10.1523 92.4135 9.12968 93.2489 8.27318C94.0843 7.41668 95.0857 6.74485 96.19 6.30006C97.2943 5.85526 98.4776 5.64714 99.6653 5.68882C101.573 5.65098 103.432 6.30089 104.911 7.5227L105.514 6.1938H109.999ZM104.439 14.8317C104.439 13.8096 104.038 12.8293 103.325 12.1066C102.612 11.3839 101.644 10.9779 100.636 10.9779C99.6271 10.9779 98.6598 11.3839 97.9466 12.1066C97.2334 12.8293 96.8327 13.8096 96.8327 14.8317C96.8327 15.8538 97.2334 16.834 97.9466 17.5567C98.6598 18.2795 99.6271 18.6855 100.636 18.6855C101.644 18.6855 102.612 18.2795 103.325 17.5567C104.038 16.834 104.439 15.8538 104.439 14.8317Z" fill="#0A1F44"/>
</svg>
