<svg width="111" height="29" viewBox="0 0 111 29" fill="none" xmlns="http://www.w3.org/2000/svg">
<g clip-path="url(#clip0)">
<path d="M16.0269 20.439H8.15856L7.00453 24.0802H0.5L9.15522 1.75464H15.0827L23.9216 24.0802H17.2334L16.0269 20.439ZM12.119 8.61178L9.70601 15.5221H14.532L12.119 8.61178Z" fill="white"/>
<path d="M25.0756 0.638428H30.9244V24.0803H25.0756V0.638428Z" fill="white"/>
<path d="M33.7046 16.5854V6.85779H39.5535V16.4259C39.5535 18.2332 40.4977 19.2963 42.1762 19.2963C43.8548 19.2963 44.799 18.2332 44.799 16.4259V6.85779H50.3331V16.5854C50.3676 17.6856 50.1707 18.7806 49.7556 19.7978C49.3404 20.8149 48.7165 21.731 47.9252 22.4851C47.1339 23.2392 46.1933 23.8141 45.166 24.1716C44.1386 24.5291 43.048 24.6611 41.9664 24.5588C40.8932 24.6452 39.8141 24.5014 38.7995 24.1367C37.7848 23.772 36.8574 23.1947 36.0778 22.4423C35.2983 21.6899 34.684 20.7794 34.275 19.7702C33.8661 18.761 33.6717 17.6758 33.7046 16.5854Z" fill="white"/>
<path d="M70.004 13.582V24.2133H64.1552V14.3794C64.1552 12.386 63.3946 11.4026 61.9258 11.4026C60.457 11.4026 59.067 12.6784 59.067 14.8844V24.0804H53.2181V6.85778H57.3097L58.2014 8.61193C58.8693 7.88024 59.6813 7.29873 60.5849 6.905C61.4885 6.51128 62.4635 6.3141 63.447 6.32622C64.3661 6.30541 65.279 6.48388 66.1245 6.84967C66.97 7.21546 67.7286 7.76012 68.3494 8.44716C68.9703 9.13421 69.4391 9.94777 69.7245 10.8334C70.0098 11.7189 70.1051 12.6561 70.004 13.582Z" fill="white"/>
<path d="M89.675 13.582V24.2132H83.7475V14.3793C83.7475 12.386 83.0131 11.4026 81.5443 11.4026C80.0756 11.4026 78.6593 12.6783 78.6593 14.8843V24.0803H72.8104V6.85774H76.9282L77.7151 8.63847C78.3839 7.90809 79.1961 7.32746 80.0995 6.93384C81.0028 6.54021 81.9774 6.34229 82.9606 6.35276C83.8914 6.30446 84.8215 6.46193 85.6862 6.81424C86.551 7.16655 87.3297 7.70527 87.9685 8.39303C88.6073 9.08079 89.0908 9.90113 89.3855 10.7971C89.6801 11.6932 89.7789 12.6434 89.675 13.582Z" fill="white"/>
<path d="M110.5 6.83113V24.0537H105.989L105.412 22.8311C103.927 24.0393 102.07 24.6792 100.166 24.6384C98.9736 24.6729 97.787 24.4571 96.6807 24.0047C95.5743 23.5522 94.5723 22.8729 93.7374 22.0094C92.9024 21.1459 92.2527 20.1168 91.829 18.9867C91.4052 17.8566 91.2166 16.6499 91.2749 15.4424C91.2198 14.2395 91.4113 13.038 91.8373 11.9138C92.2632 10.7896 92.9144 9.76701 93.7498 8.91051C94.5851 8.05401 95.5865 7.38218 96.6909 6.93739C97.7952 6.49259 98.9785 6.28447 100.166 6.32615C102.074 6.28831 103.933 6.93822 105.412 8.16003L106.015 6.83113H110.5ZM104.94 15.469C104.94 14.4469 104.539 13.4667 103.826 12.7439C103.113 12.0212 102.145 11.6152 101.137 11.6152C100.128 11.6152 99.1606 12.0212 98.4474 12.7439C97.7342 13.4667 97.3335 14.4469 97.3335 15.469C97.3335 16.4911 97.7342 17.4713 98.4474 18.1941C99.1606 18.9168 100.128 19.3228 101.137 19.3228C102.145 19.3228 103.113 18.9168 103.826 18.1941C104.539 17.4713 104.94 16.4911 104.94 15.469Z" fill="white"/>
</g>
<defs>
<clipPath id="clip0">
<rect width="110" height="28" fill="white" transform="translate(0.5 0.638428)"/>
</clipPath>
</defs>
</svg>
