<svg width="17" height="17" viewBox="0 0 17 17" fill="none" xmlns="http://www.w3.org/2000/svg">
<path d="M12.7558 9.24421C12.43 8.91838 11.9033 8.91838 11.5775 9.24421L10.2491 10.5725C9.63329 10.3892 8.48412 9.97255 7.75579 9.24421C7.02745 8.51588 6.61079 7.36671 6.42745 6.75088L7.75579 5.42254C8.08162 5.09671 8.08162 4.57005 7.75579 4.24421L4.42245 0.910879C4.09662 0.585046 3.56995 0.585046 3.24412 0.910879L0.984119 3.17088C0.667453 3.48755 0.489119 3.92255 0.495786 4.36671C0.514953 5.55338 0.82912 9.67505 4.07745 12.9234C7.32579 16.1717 11.4475 16.485 12.635 16.505C12.6391 16.505 12.6541 16.505 12.6583 16.505C13.0983 16.505 13.5141 16.3317 13.8291 16.0167L16.0891 13.7567C16.415 13.4309 16.415 12.9042 16.0891 12.5784L12.7558 9.24421ZM12.65 14.8375C11.61 14.82 8.05162 14.5409 5.25579 11.7442C2.45079 8.93921 2.17912 5.36838 2.16245 4.34921L3.83329 2.67838L5.98829 4.83338L4.91079 5.91088C4.71162 6.10921 4.62662 6.39588 4.68412 6.67088C4.70412 6.76671 5.19329 9.03921 6.57662 10.4225C7.95995 11.8059 10.2325 12.295 10.3283 12.315C10.6058 12.3742 10.89 12.2884 11.0883 12.0892L12.1666 11.0117L14.3216 13.1667L12.65 14.8375Z" fill="#4B4FE4"/>
</svg>
