<svg width="18" height="19" viewBox="0 0 18 19" fill="none" xmlns="http://www.w3.org/2000/svg">
<path d="M11.5 0.5C11.8978 0.5 12.2794 0.658035 12.5607 0.93934C12.842 1.22064 13 1.60218 13 2V7C13 7.39782 12.842 7.77936 12.5607 8.06066C12.2794 8.34196 11.8978 8.5 11.5 8.5C11.1022 8.5 10.7206 8.34196 10.4393 8.06066C10.158 7.77936 10 7.39782 10 7V2C10 1.60218 10.158 1.22064 10.4393 0.93934C10.7206 0.658035 11.1022 0.5 11.5 0.5ZM1.5 10.5H3V12C3 12.2967 2.91203 12.5867 2.7472 12.8334C2.58238 13.08 2.34811 13.2723 2.07403 13.3858C1.79994 13.4994 1.49834 13.5291 1.20737 13.4712C0.916394 13.4133 0.649119 13.2704 0.43934 13.0607C0.229562 12.8509 0.0867006 12.5836 0.0288228 12.2926C-0.0290551 12.0017 0.000649929 11.7001 0.114181 11.426C0.227713 11.1519 0.419971 10.9176 0.666645 10.7528C0.913319 10.588 1.20333 10.5 1.5 10.5ZM10 15.5H11.5C11.7967 15.5 12.0867 15.588 12.3334 15.7528C12.58 15.9176 12.7723 16.1519 12.8858 16.426C12.9994 16.7001 13.0291 17.0017 12.9712 17.2926C12.9133 17.5836 12.7704 17.8509 12.5607 18.0607C12.3509 18.2704 12.0836 18.4133 11.7926 18.4712C11.5017 18.5291 11.2001 18.4993 10.926 18.3858C10.6519 18.2723 10.4176 18.08 10.2528 17.8334C10.088 17.5867 10 17.2967 10 17V15.5ZM11.5 10.5H16.5C16.8978 10.5 17.2794 10.658 17.5607 10.9393C17.842 11.2206 18 11.6022 18 12C18 12.3978 17.842 12.7794 17.5607 13.0607C17.2794 13.342 16.8978 13.5 16.5 13.5H11.5C11.1022 13.5 10.7206 13.342 10.4393 13.0607C10.158 12.7794 10 12.3978 10 12C10 11.6022 10.158 11.2206 10.4393 10.9393C10.7206 10.658 11.1022 10.5 11.5 10.5ZM16.5 5.5C16.8978 5.5 17.2794 5.65804 17.5607 5.93934C17.842 6.22064 18 6.60218 18 7C18 7.39782 17.842 7.77936 17.5607 8.06066C17.2794 8.34196 16.8978 8.5 16.5 8.5H15V7C15 6.60218 15.158 6.22064 15.4393 5.93934C15.7206 5.65804 16.1022 5.5 16.5 5.5ZM1.5 5.5H6.5C6.89783 5.5 7.27936 5.65804 7.56066 5.93934C7.84197 6.22064 8 6.60218 8 7C8 7.39782 7.84197 7.77936 7.56066 8.06066C7.27936 8.34196 6.89783 8.5 6.5 8.5H1.5C1.10218 8.5 0.720645 8.34196 0.43934 8.06066C0.158036 7.77936 5.70751e-07 7.39782 5.70751e-07 7C5.70751e-07 6.60218 0.158036 6.22064 0.43934 5.93934C0.720645 5.65804 1.10218 5.5 1.5 5.5ZM6.5 0.5C6.89783 0.5 7.27936 0.658035 7.56066 0.93934C7.84197 1.22064 8 1.60218 8 2V3.5H6.5C6.10218 3.5 5.72064 3.34196 5.43934 3.06066C5.15804 2.77936 5 2.39782 5 2C5 1.60218 5.15804 1.22064 5.43934 0.93934C5.72064 0.658035 6.10218 0.5 6.5 0.5ZM6.5 10.5C6.89783 10.5 7.27936 10.658 7.56066 10.9393C7.84197 11.2206 8 11.6022 8 12V17C8 17.3978 7.84197 17.7794 7.56066 18.0607C7.27936 18.342 6.89783 18.5 6.5 18.5C6.10218 18.5 5.72064 18.342 5.43934 18.0607C5.15804 17.7794 5 17.3978 5 17V12C5 11.6022 5.15804 11.2206 5.43934 10.9393C5.72064 10.658 6.10218 10.5 6.5 10.5Z" fill="#A6A9C2"/>
</svg>
