<svg width="17" height="14" viewBox="0 0 17 14" fill="none" xmlns="http://www.w3.org/2000/svg">
<path fill-rule="evenodd" clip-rule="evenodd" d="M8.37526 0.472168C6.45859 0.472168 4.91907 2.0117 4.91907 3.92836C4.91907 5.84558 6.45847 7.38523 8.37526 7.38523C10.292 7.38523 11.8314 5.84558 11.8314 3.92836C11.8314 2.0117 10.2919 0.472168 8.37526 0.472168ZM8.37526 1.59717C9.6706 1.59717 10.7064 2.63302 10.7064 3.92836C10.7064 5.2243 9.67068 6.26023 8.37526 6.26023C7.07983 6.26023 6.04407 5.2243 6.04407 3.92836C6.04407 2.63302 7.07992 1.59717 8.37526 1.59717ZM4.13948 1.17854C4.45014 1.17854 4.70198 1.43038 4.70198 1.74104C4.70198 2.0517 4.45014 2.30354 4.13948 2.30354C3.24821 2.30354 2.52536 3.02608 2.52536 3.91698C2.52536 4.80789 3.24821 5.53042 4.13948 5.53042C4.45014 5.53042 4.70198 5.78226 4.70198 6.09292C4.70198 6.40358 4.45014 6.65542 4.13948 6.65542C2.627 6.65542 1.40036 5.42932 1.40036 3.91698C1.40036 2.40465 2.627 1.17854 4.13948 1.17854ZM15.3573 3.91698C15.3573 2.40465 14.1306 1.17854 12.6181 1.17854C12.3075 1.17854 12.0556 1.43038 12.0556 1.74104C12.0556 2.0517 12.3075 2.30354 12.6181 2.30354C13.5094 2.30354 14.2323 3.02608 14.2323 3.91698C14.2323 4.80789 13.5094 5.53042 12.6181 5.53042C12.3075 5.53042 12.0556 5.78226 12.0556 6.09292C12.0556 6.40358 12.3075 6.65542 12.6181 6.65542C14.1306 6.65542 15.3573 5.42932 15.3573 3.91698ZM14.7937 8.06026C14.4336 7.97898 14.0487 7.92341 13.6574 7.89642C13.3474 7.87505 13.0789 8.10897 13.0575 8.41889C13.0361 8.72881 13.27 8.99738 13.58 9.01876C13.9149 9.04185 14.243 9.08924 14.5622 9.16105C15.0584 9.25843 15.382 9.41985 15.4623 9.58811C15.5227 9.71514 15.5227 9.86448 15.4617 9.99302C15.3825 10.1596 15.0616 10.3202 14.5724 10.4208C14.2681 10.4834 14.0721 10.7808 14.1347 11.0851C14.1973 11.3894 14.4947 11.5853 14.799 11.5227C15.6076 11.3565 16.2 11.06 16.4779 10.4757C16.6839 10.0413 16.6839 9.53755 16.4779 9.10429C16.198 8.51783 15.5955 8.21722 14.7937 8.06026ZM3.69995 8.41889C3.67858 8.10897 3.41001 7.87505 3.10009 7.89642C2.70875 7.92341 2.32387 7.97898 1.94829 8.0635L1.79345 8.09626C1.08274 8.25865 0.540522 8.55707 0.280263 9.10422C0.0733722 9.5371 0.0733722 10.0418 0.280481 10.4762C0.557175 11.0598 1.14951 11.3564 1.95849 11.5227C2.26278 11.5853 2.56019 11.3894 2.62276 11.0851C2.68533 10.7808 2.48938 10.4834 2.18509 10.4208C1.69602 10.3202 1.37549 10.1597 1.2965 9.99312C1.23495 9.86403 1.23495 9.71558 1.29574 9.5884C1.37598 9.41971 1.6992 9.2584 2.17986 9.1643L2.42978 9.11314C2.67892 9.06706 2.92632 9.03608 3.17749 9.01876C3.48741 8.99738 3.72133 8.72881 3.69995 8.41889ZM3.29721 10.7825C3.29721 8.993 5.14817 8.3637 8.37521 8.3637L8.60385 8.36476C11.696 8.39381 13.4532 9.02456 13.4532 10.7694C13.4532 12.4732 11.7735 13.1255 8.82669 13.1838L8.37521 13.1881C5.14077 13.1881 3.29721 12.5699 3.29721 10.7825ZM12.3282 10.7694C12.3282 9.93649 10.9928 9.4887 8.37521 9.4887C5.76018 9.4887 4.42221 9.94359 4.42221 10.7825C4.42221 11.6155 5.7572 12.0631 8.37521 12.0631C10.9895 12.0631 12.3282 11.6078 12.3282 10.7694Z" fill="#546681"/>
</svg>
