<svg width="16" height="17" viewBox="0 0 16 17" fill="none" xmlns="http://www.w3.org/2000/svg">
<path fill-rule="evenodd" clip-rule="evenodd" d="M0.75698 6.55307C0.75698 6.24241 1.00882 5.99057 1.31948 5.99057H14.6874C14.9981 5.99057 15.2499 6.24241 15.2499 6.55307C15.2499 6.86373 14.9981 7.11557 14.6874 7.11557H1.31948C1.00882 7.11557 0.75698 6.86373 0.75698 6.55307Z" fill="#546681"/>
<path fill-rule="evenodd" clip-rule="evenodd" d="M10.7691 9.48215C10.7691 9.17149 11.0209 8.91965 11.3316 8.91965H11.3385C11.6492 8.91965 11.901 9.17149 11.901 9.48215C11.901 9.79281 11.6492 10.0446 11.3385 10.0446H11.3316C11.0209 10.0446 10.7691 9.79281 10.7691 9.48215Z" fill="#546681"/>
<path fill-rule="evenodd" clip-rule="evenodd" d="M7.44096 9.48215C7.44096 9.17149 7.6928 8.91965 8.00346 8.91965H8.01041C8.32107 8.91965 8.57291 9.17149 8.57291 9.48215C8.57291 9.79281 8.32107 10.0446 8.01041 10.0446H8.00346C7.6928 10.0446 7.44096 9.79281 7.44096 9.48215Z" fill="#546681"/>
<path fill-rule="evenodd" clip-rule="evenodd" d="M4.10592 9.48215C4.10592 9.17149 4.35776 8.91965 4.66842 8.91965H4.67537C4.98603 8.91965 5.23787 9.17149 5.23787 9.48215C5.23787 9.79281 4.98603 10.0446 4.67537 10.0446H4.66842C4.35776 10.0446 4.10592 9.79281 4.10592 9.48215Z" fill="#546681"/>
<path fill-rule="evenodd" clip-rule="evenodd" d="M10.7691 12.397C10.7691 12.0864 11.0209 11.8345 11.3316 11.8345H11.3385C11.6492 11.8345 11.901 12.0864 11.901 12.397C11.901 12.7077 11.6492 12.9595 11.3385 12.9595H11.3316C11.0209 12.9595 10.7691 12.7077 10.7691 12.397Z" fill="#546681"/>
<path fill-rule="evenodd" clip-rule="evenodd" d="M7.44096 12.397C7.44096 12.0864 7.6928 11.8345 8.00346 11.8345H8.01041C8.32107 11.8345 8.57291 12.0864 8.57291 12.397C8.57291 12.7077 8.32107 12.9595 8.01041 12.9595H8.00346C7.6928 12.9595 7.44096 12.7077 7.44096 12.397Z" fill="#546681"/>
<path fill-rule="evenodd" clip-rule="evenodd" d="M4.10592 12.397C4.10592 12.0864 4.35776 11.8345 4.66842 11.8345H4.67537C4.98603 11.8345 5.23787 12.0864 5.23787 12.397C5.23787 12.7077 4.98603 12.9595 4.67537 12.9595H4.66842C4.35776 12.9595 4.10592 12.7077 4.10592 12.397Z" fill="#546681"/>
<path fill-rule="evenodd" clip-rule="evenodd" d="M11.0328 0.437378C11.3435 0.437378 11.5953 0.689218 11.5953 0.999878V3.46796C11.5953 3.77862 11.3435 4.03046 11.0328 4.03046C10.7221 4.03046 10.4703 3.77862 10.4703 3.46796V0.999878C10.4703 0.689218 10.7221 0.437378 11.0328 0.437378Z" fill="#546681"/>
<path fill-rule="evenodd" clip-rule="evenodd" d="M4.97413 0.437378C5.28479 0.437378 5.53663 0.689218 5.53663 0.999878V3.46796C5.53663 3.77862 5.28479 4.03046 4.97413 4.03046C4.66347 4.03046 4.41163 3.77862 4.41163 3.46796V0.999878C4.41163 0.689218 4.66347 0.437378 4.97413 0.437378Z" fill="#546681"/>
<path fill-rule="evenodd" clip-rule="evenodd" d="M1.82562 2.67198C2.57686 1.95785 3.62564 1.62178 4.82822 1.62178H11.1787C12.3843 1.62178 13.4336 1.95759 14.1836 2.67252C14.9378 3.39145 15.3161 4.42406 15.3125 5.66732V12.5105C15.3125 13.7538 14.9322 14.7875 14.1779 15.5078C13.4275 16.2243 12.3783 16.5624 11.1718 16.5624H4.82822C3.62226 16.5624 2.57227 16.2173 1.82169 15.4898C1.06831 14.7596 0.6875 13.713 0.6875 12.4538V5.66654C0.6875 4.42242 1.07003 3.39024 1.82562 2.67198ZM2.60072 3.48735C2.11782 3.94639 1.8125 4.65535 1.8125 5.66654V12.4538C1.8125 13.4854 2.11955 14.2118 2.60465 14.682C3.09255 15.1548 3.83167 15.4374 4.82822 15.4374H11.1718C12.1747 15.4374 12.9146 15.1585 13.401 14.6941C13.8833 14.2335 14.1875 13.5226 14.1875 12.5105V5.66654L14.1875 5.66481C14.1906 4.65318 13.888 3.945 13.4074 3.48681C12.9223 3.02444 12.1826 2.74677 11.1787 2.74677H4.82822C3.82829 2.74677 3.08796 3.02418 2.60072 3.48735Z" fill="#546681"/>
</svg>
