<svg width="24" height="18" viewBox="0 0 24 18" fill="none" xmlns="http://www.w3.org/2000/svg">
<path fill-rule="evenodd" clip-rule="evenodd" d="M4.12132 0.679763C3.7308 0.289239 3.09763 0.289239 2.70711 0.679763C2.31658 1.07029 2.31658 1.70345 2.70711 2.09398L5.04463 4.4315L5.02529 4.46564C2.17514 4.93126 0 7.40505 0 10.3869C0 13.7006 2.68629 16.3869 6 16.3869H17L18.2635 17.6503C18.654 18.0408 19.2871 18.0408 19.6777 17.6503C20.0682 17.2598 20.0682 16.6266 19.6777 16.2361L4.12132 0.679763ZM6.81341 6.20028L15 14.3869H6C3.79086 14.3869 2 12.596 2 10.3869C2 8.40093 3.44924 6.74963 5.34774 6.43948L6.81341 6.20028Z" fill="#DB5C5C"/>
<path d="M7.82891 1.55896L9.29793 3.02798C10.1104 2.61758 11.0285 2.38687 12 2.38687C14.8087 2.38687 17.1711 4.31858 17.822 6.92862L18.1442 8.22026L19.4601 8.42164C20.898 8.6417 22 9.88741 22 11.3869C22 12.5617 21.3247 13.5788 20.3411 14.0712L21.799 15.529L21.7939 15.534C23.1248 14.6357 24 13.1135 24 11.3869C24 8.88473 22.1621 6.81186 19.7626 6.44466C18.8948 2.96492 15.7485 0.38687 12 0.38687C10.4717 0.38687 9.04343 0.81544 7.82891 1.55896Z" fill="#DB5C5C"/>
</svg>
