<svg width="20" height="19" viewBox="0 0 20 19" fill="none" xmlns="http://www.w3.org/2000/svg">
<path d="M0.999925 0.387131C1.39045 -0.00339279 2.02361 -0.00339279 2.41414 0.387132L18.9999 16.9729C19.3904 17.3634 19.3904 17.9966 18.9999 18.3871C18.6094 18.7777 17.9762 18.7777 17.5857 18.3871L0.999924 1.80134C0.6094 1.41082 0.6094 0.777656 0.999925 0.387131Z" fill="#DB5C5C"/>
<path d="M5.29661 3.2675L2.57075 5.45491C1.89116 5.97455 1.48683 6.77637 1.47837 7.63216L1.47833 7.64018V14.7125C1.47833 16.7094 3.11126 18.3143 5.10835 18.3143H6.66982C7.59558 18.3143 8.37059 17.6223 8.47626 16.7173C8.49444 16.6498 8.50414 16.5789 8.50414 16.5056V14.0168C8.50414 13.8381 8.65155 13.6791 8.8515 13.6767H11.1903C11.3923 13.6767 11.542 13.8367 11.542 14.0168V16.5131C11.5419 17.4989 12.3346 18.2914 13.3107 18.3141L13.3295 18.3143H14.891C16.3651 18.3143 17.6408 17.4398 18.2079 16.1788L16.8921 14.863C16.8143 15.879 15.955 16.6912 14.891 16.6912H13.3425C13.2363 16.6857 13.1651 16.6011 13.1651 16.5136V14.0168C13.1651 12.9249 12.2733 12.0536 11.1903 12.0536H8.84808L8.84268 12.0536C7.7648 12.0608 6.88102 12.9301 6.88103 14.0168V16.5056H6.86542C6.86542 16.6004 6.78556 16.6912 6.66982 16.6912H5.10835C3.99225 16.6912 3.10144 15.7976 3.10144 14.7125V7.64472C3.106 7.29229 3.27368 6.95869 3.56076 6.74116C3.56675 6.73662 3.57268 6.73199 3.57855 6.72728L6.4512 4.42209L5.29661 3.2675Z" fill="#DB5C5C"/>
<path d="M16.8979 12.0403V7.63875C16.8916 7.28516 16.7233 6.95086 16.4361 6.73157L16.4227 6.72109L11.0844 2.46377L11.0835 2.46306C10.4438 1.95676 9.53315 1.95654 8.8933 2.46239L8.0204 3.16286L6.86581 2.00828L7.88332 1.19176C9.11419 0.21614 10.8617 0.216151 12.0926 1.19177L12.0945 1.19328L17.4286 5.44724C18.1056 5.96775 18.5092 6.7673 18.5209 7.62132L18.5211 7.63245L18.521 13.6767L16.8979 12.0403Z" fill="#DB5C5C"/>
</svg>
