<svg width="19" height="19" viewBox="0 0 19 19" fill="none" xmlns="http://www.w3.org/2000/svg">
<path fill-rule="evenodd" clip-rule="evenodd" d="M12.814 2.57152C12.7796 2.31611 12.5623 2.11926 12.2995 2.11926C12.0127 2.11926 11.7802 2.35353 11.7802 2.64252V3.22104H7.22611V2.64252L7.22137 2.57152C7.18699 2.31611 6.96975 2.11926 6.70688 2.11926C6.42012 2.11926 6.18765 2.35353 6.18765 2.64252V3.23403C4.05991 3.38057 2.75 4.75921 2.75 6.98362V13.2973C2.75 15.6847 4.21875 17.1193 6.57219 17.1193H12.4277C14.784 17.1193 16.2499 15.7087 16.2499 13.3501V6.98362C16.2567 4.75842 14.951 3.38017 12.8187 3.23397V2.64252L12.814 2.57152ZM11.7802 4.26753V4.93841L11.785 5.00941C11.8194 5.26482 12.0366 5.46167 12.2995 5.46167C12.5862 5.46167 12.8187 5.2274 12.8187 4.93841V4.283C14.3701 4.41208 15.2165 5.34632 15.2115 6.98199V7.28502H3.78845V6.9836C3.78845 5.34894 4.63944 4.41273 6.18765 4.2831V4.93841L6.19239 5.00941C6.22677 5.26482 6.44402 5.46167 6.70688 5.46167C6.99364 5.46167 7.22611 5.2274 7.22611 4.93841V4.26753H11.7802ZM3.78845 8.33153V13.2973C3.78845 15.0993 4.78513 16.0727 6.57218 16.0727H12.4277C14.2209 16.0727 15.2115 15.1196 15.2115 13.3501L15.2115 8.33153H3.78845ZM13.1009 10.533C13.1009 10.244 12.8684 10.0098 12.5817 10.0098L12.5048 10.0145C12.2514 10.0492 12.056 10.2681 12.056 10.533C12.056 10.822 12.2885 11.0563 12.5817 11.0563L12.6521 11.0515C12.9056 11.0168 13.1009 10.7979 13.1009 10.533ZM9.50959 10.0098C9.79635 10.0098 10.0288 10.244 10.0288 10.533C10.0288 10.7979 9.83348 11.0168 9.58005 11.0515L9.50959 11.0563C9.21641 11.0563 8.98395 10.822 8.98395 10.533C8.98395 10.2681 9.17928 10.0492 9.43272 10.0145L9.50959 10.0098ZM6.95031 10.533C6.95031 10.244 6.71785 10.0098 6.43109 10.0098L6.35422 10.0145C6.10078 10.0492 5.90544 10.2681 5.90544 10.533C5.90544 10.822 6.13791 11.0563 6.42467 11.0563L6.50154 11.0515C6.75498 11.0168 6.95031 10.7979 6.95031 10.533ZM12.5817 12.7213C12.8684 12.7213 13.1009 12.9556 13.1009 13.2445C13.1009 13.5095 12.9056 13.7284 12.6521 13.763L12.5817 13.7678C12.2885 13.7678 12.056 13.5335 12.056 13.2445C12.056 12.9796 12.2514 12.7607 12.5048 12.7261L12.5817 12.7213ZM10.0288 13.2445C10.0288 12.9556 9.79635 12.7213 9.50959 12.7213L9.43272 12.7261C9.17928 12.7607 8.98395 12.9796 8.98395 13.2445C8.98395 13.5335 9.21641 13.7678 9.50959 13.7678L9.58005 13.763C9.83348 13.7284 10.0288 13.5095 10.0288 13.2445ZM6.43109 12.7213C6.71785 12.7213 6.95031 12.9556 6.95031 13.2445C6.95031 13.5095 6.75498 13.7284 6.50154 13.763L6.42467 13.7678C6.13791 13.7678 5.90544 13.5335 5.90544 13.2445C5.90544 12.9796 6.10078 12.7607 6.35422 12.7261L6.43109 12.7213Z" fill="#546681"/>
</svg>
