<svg width="19" height="19" viewBox="0 0 19 19" fill="none" xmlns="http://www.w3.org/2000/svg">
<path d="M9.5 2.11926C5.3645 2.11926 2 5.48376 2 9.61926C2 13.7548 5.3645 17.1193 9.5 17.1193C13.6355 17.1193 17 13.7548 17 9.61926C17 5.48376 13.6355 2.11926 9.5 2.11926ZM9.5 15.6193C6.19175 15.6193 3.5 12.9275 3.5 9.61926C3.5 6.31101 6.19175 3.61926 9.5 3.61926C12.8082 3.61926 15.5 6.31101 15.5 9.61926C15.5 12.9275 12.8082 15.6193 9.5 15.6193Z" fill="#4B4FE4"/>
<path d="M10.25 6.99426C10.25 6.58005 9.91421 6.24426 9.5 6.24426C9.08579 6.24426 8.75 6.58005 8.75 6.99426V10.7443H12.5C12.9142 10.7443 13.25 10.4085 13.25 9.99426C13.25 9.58005 12.9142 9.24426 12.5 9.24426H10.25V6.99426Z" fill="#4B4FE4"/>
</svg>
