<svg width="71" height="71" viewBox="0 0 71 71" fill="none" xmlns="http://www.w3.org/2000/svg">
<path d="M47.758 28.6442C45.501 25.5851 43.28 23.1516 43.1865 23.0495C43.0621 22.9135 42.9107 22.805 42.7421 22.7307C42.5734 22.6564 42.3911 22.618 42.2068 22.618C42.0225 22.618 41.8402 22.6564 41.6716 22.7307C41.5029 22.805 41.3515 22.9135 41.2271 23.0495C41.1337 23.1516 38.9126 25.5851 36.6556 28.6442C33.4649 32.969 31.9139 36.345 31.9139 38.621C31.9139 41.657 33.2294 44.4988 35.3186 46.3884C31.1936 46.2985 27.8631 42.7892 27.8631 38.621C27.8631 37.6847 28.4083 35.2047 32.0439 30.2346C34.1985 27.2892 36.3883 24.869 36.4166 24.8378C36.6462 24.576 36.7639 24.2344 36.7441 23.8866C36.7244 23.5389 36.5688 23.2128 36.311 22.9787C36.0531 22.7445 35.7136 22.6211 35.3656 22.6348C35.0175 22.6486 34.6889 22.7986 34.4503 23.0524C34.3577 23.1545 32.1535 25.5883 29.9143 28.6477C26.7481 32.972 25.2074 36.3466 25.2074 38.621C25.2074 41.6199 26.4911 44.4316 28.5324 46.3187C24.4407 46.1738 21.1568 42.6873 21.1568 38.5546C21.1568 37.6192 21.7036 35.1412 25.3663 30.1722C27.5375 27.2267 29.7447 24.8065 29.7729 24.7754C30.0054 24.5147 30.1259 24.1728 30.1082 23.8239C30.0905 23.475 29.936 23.1471 29.6782 22.9113C29.4205 22.6755 29.0802 22.5507 28.7311 22.5641C28.3819 22.5774 28.0522 22.7278 27.8131 22.9826C27.7197 23.0846 25.4986 25.5184 23.2417 28.5773C20.051 32.9025 18.5 36.2784 18.5 38.5546C18.5 44.2436 23.1233 48.9803 28.8058 48.9803C29.9108 48.9815 31.0087 48.8043 32.0572 48.4555C34.2475 49.2331 36.6369 49.244 38.8342 48.4864C38.8387 48.4849 38.8432 48.4827 38.8473 48.4812C39.9277 48.856 41.0634 49.047 42.207 49.0462C43.823 49.0323 45.4138 48.6432 46.8538 47.9096C47.0112 47.8322 47.1517 47.7245 47.2672 47.5926C47.3828 47.4606 47.4711 47.3071 47.527 47.1409C47.5829 46.9746 47.6053 46.799 47.5929 46.624C47.5806 46.4491 47.5337 46.2783 47.455 46.1216C47.3763 45.9648 47.2673 45.8252 47.1344 45.7108C47.0015 45.5964 46.8472 45.5095 46.6805 45.455C46.5138 45.4006 46.3379 45.3797 46.1631 45.3935C45.9883 45.4074 45.8179 45.4557 45.6619 45.5358C44.592 46.0842 43.4093 46.3768 42.2071 46.3903C37.9962 46.3903 34.5706 42.8457 34.5706 38.6216C34.5706 37.6861 35.1175 35.2083 38.7801 30.2395C40.0618 28.5008 41.356 26.9453 42.2071 25.9562C43.0545 26.9409 44.3415 28.4879 45.6206 30.2217C49.2949 35.202 49.8435 37.6847 49.8435 38.6216C49.838 39.697 49.6256 40.7613 49.2179 41.7565C49.0838 42.0804 49.0832 42.4441 49.2162 42.7684C49.3492 43.0927 49.605 43.3513 49.9279 43.4878C50.2507 43.6243 50.6144 43.6277 50.9398 43.4971C51.2651 43.3666 51.5256 43.1127 51.6645 42.7909C52.2101 41.4681 52.4939 40.0519 52.5 38.621C52.5 36.3454 50.949 32.9689 47.7583 28.6442H47.758Z" fill="#4B4FE4"/>
<path d="M35.5 70.8049C54.83 70.8049 70.5 55.1349 70.5 35.8049C70.5 16.475 54.83 0.804932 35.5 0.804932C16.17 0.804932 0.5 16.475 0.5 35.8049C0.5 55.1349 16.17 70.8049 35.5 70.8049Z" fill="#484DFF" fill-opacity="0.1"/>
</svg>
