<svg width="19" height="19" viewBox="0 0 19 19" fill="none" xmlns="http://www.w3.org/2000/svg">
<path fill-rule="evenodd" clip-rule="evenodd" d="M9.45326 3.19739C7.5366 3.19739 5.99707 4.73691 5.99707 6.65357C5.99707 8.5708 7.53647 10.1104 9.45326 10.1104C11.37 10.1104 12.9094 8.5708 12.9094 6.65357C12.9094 4.73691 11.3699 3.19739 9.45326 3.19739ZM9.45326 4.32239C10.7486 4.32239 11.7844 5.35824 11.7844 6.65358C11.7844 7.94952 10.7487 8.98545 9.45326 8.98545C8.15783 8.98545 7.12207 7.94952 7.12207 6.65358C7.12207 5.35824 8.15792 4.32239 9.45326 4.32239ZM5.21749 3.90376C5.52815 3.90376 5.77999 4.1556 5.77999 4.46626C5.77999 4.77692 5.52815 5.02876 5.21749 5.02876C4.32621 5.02876 3.60336 5.7513 3.60336 6.6422C3.60336 7.5331 4.32621 8.25564 5.21749 8.25564C5.52815 8.25564 5.77999 8.50748 5.77999 8.81814C5.77999 9.1288 5.52815 9.38064 5.21749 9.38064C3.705 9.38064 2.47836 8.15453 2.47836 6.6422C2.47836 5.12987 3.705 3.90376 5.21749 3.90376ZM16.4353 6.6422C16.4353 5.12987 15.2086 3.90376 13.6961 3.90376C13.3855 3.90376 13.1336 4.1556 13.1336 4.46626C13.1336 4.77692 13.3855 5.02876 13.6961 5.02876C14.5874 5.02876 15.3103 5.7513 15.3103 6.6422C15.3103 7.5331 14.5874 8.25564 13.6961 8.25564C13.3855 8.25564 13.1336 8.50748 13.1336 8.81814C13.1336 9.1288 13.3855 9.38064 13.6961 9.38064C15.2086 9.38064 16.4353 8.15453 16.4353 6.6422ZM15.8717 10.7855C15.5116 10.7042 15.1267 10.6486 14.7354 10.6216C14.4254 10.6003 14.1569 10.8342 14.1355 11.1441C14.1141 11.454 14.348 11.7226 14.658 11.744C14.9929 11.7671 15.3211 11.8145 15.6402 11.8863C16.1364 11.9837 16.46 12.1451 16.5403 12.3133C16.6007 12.4404 16.6007 12.5897 16.5397 12.7182C16.4605 12.8848 16.1396 13.0454 15.6504 13.146C15.3461 13.2086 15.1501 13.506 15.2127 13.8103C15.2753 14.1146 15.5727 14.3105 15.877 14.248C16.6856 14.0817 17.278 13.7852 17.5559 13.2009C17.7619 12.7665 17.7619 12.2628 17.5559 11.8295C17.276 11.243 16.6735 10.9424 15.8717 10.7855ZM4.77796 11.1441C4.75658 10.8342 4.48801 10.6003 4.17809 10.6216C3.78675 10.6486 3.40187 10.7042 3.02629 10.7887L2.87146 10.8215C2.16074 10.9839 1.61853 11.2823 1.35827 11.8294C1.15138 12.2623 1.15138 12.767 1.35848 13.2014C1.63518 13.785 2.22751 14.0816 3.03649 14.248C3.34079 14.3105 3.63819 14.1146 3.70076 13.8103C3.76333 13.506 3.56738 13.2086 3.26309 13.146C2.77402 13.0455 2.45349 12.885 2.3745 12.7183C2.31296 12.5893 2.31296 12.4408 2.37374 12.3136C2.45398 12.1449 2.7772 11.9836 3.25786 11.8895L3.50778 11.8384C3.75692 11.7923 4.00432 11.7613 4.25549 11.744C4.56542 11.7226 4.79933 11.454 4.77796 11.1441ZM4.37521 13.5077C4.37521 11.7182 6.22617 11.0889 9.45321 11.0889L9.68185 11.09C12.774 11.119 14.5312 11.7498 14.5312 13.4946C14.5312 15.1984 12.8515 15.8508 9.90469 15.909L9.45321 15.9134C6.21877 15.9134 4.37521 15.2951 4.37521 13.5077ZM13.4062 13.4946C13.4062 12.6617 12.0708 12.2139 9.45321 12.2139C6.83818 12.2139 5.50021 12.6688 5.50021 13.5077C5.50021 14.3407 6.8352 14.7884 9.45321 14.7884C12.0675 14.7884 13.4062 14.3331 13.4062 13.4946Z" fill="#546681"/>
</svg>
