<svg width="14" height="19" viewBox="0 0 14 19" fill="none" xmlns="http://www.w3.org/2000/svg">
<path d="M6.16683 13.9483C4.48576 13.7344 2.94921 12.8884 1.86949 11.5823C0.789765 10.2762 0.247896 8.60791 0.354013 6.9166C0.460131 5.2253 1.20627 3.63787 2.44078 2.47694C3.6753 1.31602 5.30554 0.668728 7.00016 0.666628C8.69686 0.665364 10.3302 1.31108 11.5674 2.47219C12.8046 3.63331 13.5525 5.22246 13.6587 6.91583C13.765 8.6092 13.2215 10.2794 12.1392 11.586C11.0569 12.8927 9.51705 13.7375 7.8335 13.9483V15.6766C11.1218 15.7533 13.6668 16.2791 13.6668 16.9166C13.6668 17.6066 10.6818 18.1666 7.00016 18.1666C3.3185 18.1666 0.333496 17.6066 0.333496 16.9166C0.333496 16.2791 2.8785 15.7533 6.16683 15.6766V13.9483ZM7.00016 12.3333C8.32624 12.3333 9.59801 11.8065 10.5357 10.8688C11.4734 9.93115 12.0002 8.65938 12.0002 7.33329C12.0002 6.00721 11.4734 4.73544 10.5357 3.79776C9.59801 2.86008 8.32624 2.33329 7.00016 2.33329C5.67408 2.33329 4.40231 2.86008 3.46463 3.79776C2.52695 4.73544 2.00016 6.00721 2.00016 7.33329C2.00016 8.65938 2.52695 9.93115 3.46463 10.8688C4.40231 11.8065 5.67408 12.3333 7.00016 12.3333ZM7.00016 8.99996C6.55814 8.99996 6.13421 8.82437 5.82165 8.51181C5.50909 8.19924 5.3335 7.77532 5.3335 7.33329C5.3335 6.89127 5.50909 6.46734 5.82165 6.15478C6.13421 5.84222 6.55814 5.66663 7.00016 5.66663C7.44219 5.66663 7.86611 5.84222 8.17867 6.15478C8.49123 6.46734 8.66683 6.89127 8.66683 7.33329C8.66683 7.77532 8.49123 8.19924 8.17867 8.51181C7.86611 8.82437 7.44219 8.99996 7.00016 8.99996Z" fill="#546681"/>
</svg>
