<svg width="20" height="16" viewBox="0 0 20 16" fill="none" xmlns="http://www.w3.org/2000/svg">
<path fill-rule="evenodd" clip-rule="evenodd" d="M9.9481 0.864624C7.81847 0.864624 6.10789 2.57521 6.10789 4.70483C6.10789 6.83508 7.81833 8.5458 9.9481 8.5458C12.0779 8.5458 13.7883 6.83508 13.7883 4.70483C13.7883 2.57521 12.0777 0.864624 9.9481 0.864624ZM9.9481 2.11462C11.3874 2.11462 12.5383 3.26557 12.5383 4.70483C12.5383 6.14477 11.3875 7.2958 9.9481 7.2958C8.50874 7.2958 7.35789 6.14477 7.35789 4.70483C7.35789 3.26557 8.50883 2.11462 9.9481 2.11462ZM5.24162 1.64952C5.5868 1.64952 5.86662 1.92934 5.86662 2.27452C5.86662 2.61969 5.5868 2.89952 5.24162 2.89952C4.25131 2.89952 3.44815 3.70233 3.44815 4.69222C3.44815 5.68212 4.25131 6.48493 5.24162 6.48493C5.5868 6.48493 5.86662 6.76475 5.86662 7.10993C5.86662 7.45511 5.5868 7.73493 5.24162 7.73493C3.56108 7.73493 2.19815 6.3726 2.19815 4.69222C2.19815 3.01185 3.56108 1.64952 5.24162 1.64952ZM17.7058 4.69222C17.7058 3.01185 16.3429 1.64952 14.6624 1.64952C14.3172 1.64952 14.0374 1.92934 14.0374 2.27452C14.0374 2.61969 14.3172 2.89952 14.6624 2.89952C15.6527 2.89952 16.4558 3.70233 16.4558 4.69222C16.4558 5.68212 15.6527 6.48493 14.6624 6.48493C14.3172 6.48493 14.0374 6.76475 14.0374 7.10993C14.0374 7.45511 14.3172 7.73493 14.6624 7.73493C16.3429 7.73493 17.7058 6.3726 17.7058 4.69222ZM17.0798 9.29585C16.6797 9.20554 16.252 9.1438 15.8172 9.11381C15.4728 9.09007 15.1744 9.34997 15.1507 9.69433C15.1269 10.0387 15.3868 10.3371 15.7312 10.3609C16.1033 10.3865 16.468 10.4392 16.8225 10.519C17.3739 10.6272 17.7334 10.8065 17.8226 10.9935C17.8897 11.1346 17.8897 11.3005 17.822 11.4434C17.734 11.6285 17.3775 11.8069 16.8339 11.9187C16.4958 11.9882 16.278 12.3187 16.3476 12.6568C16.4171 12.9949 16.7475 13.2126 17.0856 13.1431C17.9841 12.9583 18.6423 12.6289 18.9511 11.9797C19.18 11.497 19.18 10.9373 18.9511 10.4559C18.6402 9.80426 17.9707 9.47025 17.0798 9.29585ZM4.75329 9.69433C4.72954 9.34997 4.43113 9.09007 4.08677 9.11381C3.65194 9.1438 3.2243 9.20554 2.80699 9.29946L2.63495 9.33585C1.84527 9.51629 1.24281 9.84787 0.953629 10.4558C0.72375 10.9368 0.72375 11.4975 0.953871 11.9802C1.26131 12.6287 1.91945 12.9582 2.81832 13.1431C3.15643 13.2126 3.48688 12.9949 3.5564 12.6568C3.62593 12.3187 3.4082 11.9882 3.0701 11.9187C2.52669 11.8069 2.17055 11.6286 2.08278 11.4435C2.0144 11.3 2.0144 11.1351 2.08194 10.9938C2.17109 10.8064 2.53023 10.6271 3.06429 10.5226L3.34198 10.4657C3.6188 10.4145 3.89369 10.3801 4.17277 10.3609C4.51713 10.3371 4.77703 10.0387 4.75329 9.69433ZM4.30586 12.3205C4.30586 10.3322 6.36248 9.63301 9.94809 9.63301L10.2021 9.63419C13.6379 9.66646 15.5903 10.3673 15.5903 12.306C15.5903 14.1991 13.724 14.9239 10.4497 14.9887L9.94809 14.9935C6.35426 14.9935 4.30586 14.3066 4.30586 12.3205ZM14.3403 12.306C14.3403 11.3805 12.8565 10.883 9.94809 10.883C7.0425 10.883 5.55586 11.3884 5.55586 12.3205C5.55586 13.2461 7.03918 13.7435 9.94809 13.7435C12.8528 13.7435 14.3403 13.2376 14.3403 12.306Z" fill="#546681"/>
<path d="M15.8172 9.11381L15.8275 8.96417H15.8275L15.8172 9.11381ZM17.0798 9.29585L17.0468 9.44223L17.051 9.44306L17.0798 9.29585ZM15.1507 9.69433L15.001 9.68401V9.68401L15.1507 9.69433ZM15.7312 10.3609L15.7415 10.2112H15.7415L15.7312 10.3609ZM16.8225 10.519L16.7896 10.6654L16.7936 10.6662L16.8225 10.519ZM17.8226 10.9935L17.9581 10.9291L17.958 10.9289L17.8226 10.9935ZM17.822 11.4434L17.9575 11.5078L17.9575 11.5077L17.822 11.4434ZM16.8339 11.9187L16.8641 12.0656L16.8339 11.9187ZM16.3476 12.6568L16.4945 12.6265V12.6265L16.3476 12.6568ZM17.0856 13.1431L17.0554 12.9961L17.0856 13.1431ZM18.9511 11.9797L19.0865 12.0441L19.0866 12.044L18.9511 11.9797ZM18.9511 10.4559L19.0866 10.3915L19.0865 10.3913L18.9511 10.4559ZM4.08677 9.11381L4.07645 8.96417H4.07645L4.08677 9.11381ZM4.75329 9.69433L4.60364 9.70465L4.75329 9.69433ZM2.80699 9.29946L2.83804 9.44622L2.83992 9.4458L2.80699 9.29946ZM2.63495 9.33585L2.6039 9.18908L2.60154 9.18962L2.63495 9.33585ZM0.953629 10.4558L1.08897 10.5205L1.08909 10.5202L0.953629 10.4558ZM0.953871 11.9802L1.08941 11.9159L1.08927 11.9156L0.953871 11.9802ZM2.81832 13.1431L2.84854 12.9961L2.81832 13.1431ZM3.0701 11.9187L3.03989 12.0656H3.03989L3.0701 11.9187ZM2.08278 11.4435L2.21832 11.3792L2.21818 11.3789L2.08278 11.4435ZM2.08194 10.9938L2.21727 11.0585L2.21739 11.0582L2.08194 10.9938ZM3.06429 10.5226L3.09311 10.6698L3.09437 10.6695L3.06429 10.5226ZM3.34198 10.4657L3.3147 10.3182L3.3119 10.3188L3.34198 10.4657ZM4.17277 10.3609L4.16245 10.2112H4.16245L4.17277 10.3609ZM9.94809 9.63301L9.94878 9.48301H9.94809V9.63301ZM10.2021 9.63419L10.2035 9.48419L10.2028 9.48419L10.2021 9.63419ZM10.4497 14.9887L10.4512 15.1387L10.4527 15.1386L10.4497 14.9887ZM9.94809 14.9935V15.1435L9.94953 15.1435L9.94809 14.9935ZM6.25789 4.70483C6.25789 2.65805 7.90132 1.01462 9.9481 1.01462V0.714624C7.73563 0.714624 5.95789 2.49237 5.95789 4.70483H6.25789ZM9.9481 8.3958C7.9012 8.3958 6.25789 6.75226 6.25789 4.70483H5.95789C5.95789 6.91789 7.73546 8.6958 9.9481 8.6958V8.3958ZM13.6383 4.70483C13.6383 6.75226 11.995 8.3958 9.9481 8.3958V8.6958C12.1607 8.6958 13.9383 6.91789 13.9383 4.70483H13.6383ZM9.9481 1.01462C11.9949 1.01462 13.6383 2.65805 13.6383 4.70483H13.9383C13.9383 2.49237 12.1606 0.714624 9.9481 0.714624V1.01462ZM12.6883 4.70483C12.6883 3.18272 11.4702 1.96462 9.9481 1.96462V2.26462C11.3045 2.26462 12.3883 3.34841 12.3883 4.70483H12.6883ZM9.9481 7.4458C11.4703 7.4458 12.6883 6.22757 12.6883 4.70483H12.3883C12.3883 6.06196 11.3046 7.1458 9.9481 7.1458V7.4458ZM7.20789 4.70483C7.20789 6.22757 8.42586 7.4458 9.9481 7.4458V7.1458C8.59161 7.1458 7.50789 6.06196 7.50789 4.70483H7.20789ZM9.9481 1.96462C8.42599 1.96462 7.20789 3.18272 7.20789 4.70483H7.50789C7.50789 3.34841 8.59167 2.26462 9.9481 2.26462V1.96462ZM6.01662 2.27452C6.01662 1.8465 5.66964 1.49952 5.24162 1.49952V1.79952C5.50395 1.79952 5.71662 2.01218 5.71662 2.27452H6.01662ZM5.24162 3.04952C5.66964 3.04952 6.01662 2.70254 6.01662 2.27452H5.71662C5.71662 2.53685 5.50395 2.74952 5.24162 2.74952V3.04952ZM3.59815 4.69222C3.59815 3.78523 4.33409 3.04952 5.24162 3.04952V2.74952C4.16853 2.74952 3.29815 3.61943 3.29815 4.69222H3.59815ZM5.24162 6.33493C4.33409 6.33493 3.59815 5.59921 3.59815 4.69222H3.29815C3.29815 5.76502 4.16853 6.63493 5.24162 6.63493V6.33493ZM6.01662 7.10993C6.01662 6.68191 5.66964 6.33493 5.24162 6.33493V6.63493C5.50395 6.63493 5.71662 6.8476 5.71662 7.10993H6.01662ZM5.24162 7.88493C5.66964 7.88493 6.01662 7.53795 6.01662 7.10993H5.71662C5.71662 7.37227 5.50395 7.58493 5.24162 7.58493V7.88493ZM2.04815 4.69222C2.04815 6.45548 3.47828 7.88493 5.24162 7.88493V7.58493C3.64388 7.58493 2.34815 6.28971 2.34815 4.69222H2.04815ZM5.24162 1.49952C3.47828 1.49952 2.04815 2.92897 2.04815 4.69222H2.34815C2.34815 3.09474 3.64388 1.79952 5.24162 1.79952V1.49952ZM14.6624 1.79952C16.2601 1.79952 17.5558 3.09474 17.5558 4.69222H17.8558C17.8558 2.92897 16.4257 1.49952 14.6624 1.49952V1.79952ZM14.1874 2.27452C14.1874 2.01218 14.4 1.79952 14.6624 1.79952V1.49952C14.2343 1.49952 13.8874 1.8465 13.8874 2.27452H14.1874ZM14.6624 2.74952C14.4 2.74952 14.1874 2.53685 14.1874 2.27452H13.8874C13.8874 2.70254 14.2343 3.04952 14.6624 3.04952V2.74952ZM16.6058 4.69222C16.6058 3.61943 15.7354 2.74952 14.6624 2.74952V3.04952C15.5699 3.04952 16.3058 3.78523 16.3058 4.69222H16.6058ZM14.6624 6.63493C15.7354 6.63493 16.6058 5.76502 16.6058 4.69222H16.3058C16.3058 5.59921 15.5699 6.33493 14.6624 6.33493V6.63493ZM14.1874 7.10993C14.1874 6.8476 14.4 6.63493 14.6624 6.63493V6.33493C14.2343 6.33493 13.8874 6.68191 13.8874 7.10993H14.1874ZM14.6624 7.58493C14.4 7.58493 14.1874 7.37227 14.1874 7.10993H13.8874C13.8874 7.53795 14.2343 7.88493 14.6624 7.88493V7.58493ZM17.5558 4.69222C17.5558 6.28971 16.2601 7.58493 14.6624 7.58493V7.88493C16.4257 7.88493 17.8558 6.45548 17.8558 4.69222H17.5558ZM15.8069 9.26346C16.2345 9.29295 16.6545 9.35364 17.0468 9.44217L17.1128 9.14953C16.7048 9.05744 16.2695 8.99465 15.8275 8.96417L15.8069 9.26346ZM15.3003 9.70465C15.3184 9.44294 15.5452 9.24541 15.8069 9.26346L15.8275 8.96417C15.4005 8.93472 15.0305 9.25701 15.001 9.68401L15.3003 9.70465ZM15.7415 10.2112C15.4798 10.1932 15.2823 9.96637 15.3003 9.70465L15.001 9.68401C14.9716 10.111 15.2939 10.481 15.7209 10.5105L15.7415 10.2112ZM16.8555 10.3726C16.4932 10.2911 16.1209 10.2374 15.7415 10.2112L15.7209 10.5105C16.0856 10.5357 16.4427 10.5872 16.7896 10.6653L16.8555 10.3726ZM17.958 10.9289C17.8907 10.7878 17.7393 10.6773 17.5609 10.5915C17.3761 10.5026 17.1353 10.4275 16.8514 10.3718L16.7936 10.6662C17.0611 10.7186 17.2758 10.7873 17.4309 10.8619C17.5923 10.9395 17.6653 11.0121 17.6873 11.0581L17.958 10.9289ZM17.9575 11.5077C18.0444 11.3244 18.0447 11.1112 17.9581 10.9291L17.6872 11.0579C17.7348 11.158 17.735 11.2767 17.6865 11.3791L17.9575 11.5077ZM16.8641 12.0656C17.1438 12.0081 17.3817 11.9322 17.5643 11.8434C17.7405 11.7578 17.8908 11.6479 17.9575 11.5078L17.6865 11.3789C17.6651 11.424 17.5931 11.4958 17.4332 11.5736C17.2797 11.6482 17.0675 11.7175 16.8036 11.7718L16.8641 12.0656ZM16.4945 12.6265C16.4416 12.3696 16.6071 12.1184 16.8641 12.0656L16.8036 11.7718C16.3844 11.858 16.1144 12.2677 16.2006 12.687L16.4945 12.6265ZM17.0554 12.9961C16.7985 13.049 16.5473 12.8835 16.4945 12.6265L16.2006 12.687C16.2868 13.1062 16.6966 13.3762 17.1158 13.29L17.0554 12.9961ZM18.8156 11.9153C18.5379 12.4991 17.9401 12.8142 17.0554 12.9961L17.1158 13.29C18.0282 13.1024 18.7467 12.7586 19.0865 12.0441L18.8156 11.9153ZM18.8157 10.5203C19.0252 10.9609 19.0252 11.4734 18.8156 11.9154L19.0866 12.044C19.3348 11.5207 19.3349 10.9137 19.0866 10.3915L18.8157 10.5203ZM17.051 9.44306C17.9268 9.61452 18.536 9.9342 18.8158 10.5205L19.0865 10.3913C18.7443 9.67433 18.0145 9.32599 17.1086 9.14865L17.051 9.44306ZM4.09709 9.26346C4.3588 9.24541 4.58559 9.44294 4.60364 9.70465L4.90293 9.68401C4.87348 9.25701 4.50345 8.93472 4.07645 8.96417L4.09709 9.26346ZM2.83992 9.4458C3.24955 9.35361 3.66963 9.29294 4.09709 9.26346L4.07645 8.96417C3.63426 8.99467 3.19905 9.05748 2.77405 9.15312L2.83992 9.4458ZM2.666 9.48261L2.83803 9.44621L2.77594 9.15271L2.6039 9.1891L2.666 9.48261ZM1.08909 10.5202C1.3493 9.9732 1.89705 9.65832 2.66836 9.48209L2.60154 9.18962C1.79348 9.37425 1.13632 9.72254 0.818172 10.3914L1.08909 10.5202ZM1.08927 11.9156C0.878582 11.4737 0.878673 10.9605 1.08897 10.5205L0.818292 10.3911C0.568827 10.9131 0.568918 11.5213 0.818472 12.0448L1.08927 11.9156ZM2.84854 12.9961C1.96339 12.8141 1.36579 12.4989 1.08941 11.9159L0.818332 12.0445C1.15683 12.7584 1.87551 13.1023 2.78811 13.29L2.84854 12.9961ZM3.40948 12.6265C3.35664 12.8835 3.1055 13.049 2.84854 12.9961L2.78811 13.29C3.20736 13.3762 3.61712 13.1062 3.70333 12.687L3.40948 12.6265ZM3.03989 12.0656C3.29684 12.1184 3.46232 12.3696 3.40948 12.6265L3.70333 12.687C3.78954 12.2677 3.51956 11.858 3.10031 11.7718L3.03989 12.0656ZM1.94724 11.5077C2.01371 11.6479 2.16389 11.7578 2.33996 11.8435C2.5225 11.9323 2.76022 12.0081 3.03989 12.0656L3.10031 11.7718C2.83657 11.7175 2.62452 11.6483 2.47119 11.5737C2.31139 11.496 2.23962 11.4242 2.21832 11.3792L1.94724 11.5077ZM1.9466 10.9291C1.85935 11.1117 1.85968 11.3241 1.94738 11.508L2.21818 11.3789C2.16911 11.276 2.16944 11.1586 2.21727 11.0585L1.9466 10.9291ZM3.03547 10.3754C2.75989 10.4293 2.52341 10.5036 2.34083 10.5921C2.16462 10.6776 2.0136 10.7882 1.94648 10.9294L2.21739 11.0582C2.23943 11.0119 2.31255 10.9392 2.47172 10.8621C2.62451 10.788 2.83463 10.7204 3.09311 10.6698L3.03547 10.3754ZM3.3119 10.3188L3.03421 10.3756L3.09437 10.6695L3.37206 10.6127L3.3119 10.3188ZM4.16245 10.2112C3.87779 10.2308 3.59724 10.266 3.3147 10.3182L3.36926 10.6132C3.64037 10.5631 3.90959 10.5294 4.18309 10.5105L4.16245 10.2112ZM4.60364 9.70465C4.62169 9.96637 4.42416 10.1932 4.16245 10.2112L4.18309 10.5105C4.6101 10.481 4.93238 10.111 4.90293 9.68401L4.60364 9.70465ZM9.94809 9.48301C8.15102 9.48301 6.7142 9.65737 5.72197 10.0939C5.22346 10.3131 4.83004 10.6017 4.56156 10.9741C4.29204 11.3479 4.15586 11.7961 4.15586 12.3205H4.45586C4.45586 11.8508 4.57676 11.466 4.80491 11.1495C5.03409 10.8316 5.37893 10.5725 5.84277 10.3685C6.77525 9.95826 8.15955 9.78301 9.94809 9.78301V9.48301ZM10.2028 9.48419L9.94878 9.48301L9.94739 9.78301L10.2014 9.78419L10.2028 9.48419ZM15.7403 12.306C15.7403 11.7948 15.6111 11.3565 15.3545 10.9893C15.0988 10.6232 14.7236 10.3377 14.2473 10.1189C13.2996 9.68347 11.9258 9.50037 10.2035 9.4842L10.2007 9.78418C11.9142 9.80028 13.2345 9.98374 14.122 10.3915C14.5633 10.5942 14.8909 10.8495 15.1086 11.1611C15.3255 11.4715 15.4403 11.8479 15.4403 12.306H15.7403ZM10.4527 15.1386C12.095 15.1062 13.4073 14.9086 14.3135 14.4679C14.769 14.2463 15.1276 13.9607 15.3719 13.5986C15.6168 13.2355 15.7403 12.8052 15.7403 12.306H15.4403C15.4403 12.7534 15.3305 13.1235 15.1232 13.4308C14.9152 13.7391 14.6026 13.9937 14.1823 14.1981C13.3368 14.6092 12.0788 14.8064 10.4468 14.8387L10.4527 15.1386ZM9.94953 15.1435L10.4512 15.1387L10.4483 14.8387L9.94664 14.8435L9.94953 15.1435ZM4.15586 12.3205C4.15586 12.8443 4.29148 13.2914 4.56047 13.6639C4.82842 14.0349 5.22122 14.3217 5.71924 14.5392C6.7104 14.9723 8.14718 15.1435 9.94809 15.1435V14.8435C8.15517 14.8435 6.77083 14.6713 5.83934 14.2643C5.37604 14.0619 5.03211 13.8045 4.80369 13.4882C4.57629 13.1733 4.45586 12.7897 4.45586 12.3205H4.15586ZM9.94809 11.033C11.3974 11.033 12.4765 11.1574 13.1883 11.39C13.9082 11.6253 14.1903 11.9468 14.1903 12.306H14.4903C14.4903 11.7398 14.0305 11.3497 13.2815 11.1049C12.5242 10.8574 11.4072 10.733 9.94809 10.733V11.033ZM5.70586 12.3205C5.70586 11.9573 5.98971 11.6325 6.70945 11.3947C7.4214 11.1594 8.50037 11.033 9.94809 11.033V10.733C8.49021 10.733 7.37307 10.8594 6.61531 11.1098C5.86533 11.3577 5.40586 11.7517 5.40586 12.3205H5.70586ZM9.94809 13.5935C8.49856 13.5935 7.41943 13.4691 6.70774 13.2365C5.98789 13.0012 5.70586 12.6798 5.70586 12.3205H5.40586C5.40586 12.8868 5.86549 13.2768 6.61453 13.5217C7.37173 13.7692 8.48871 13.8935 9.94809 13.8935V13.5935ZM14.1903 12.306C14.1903 12.6689 13.9063 12.9937 13.1864 13.2317C12.4743 13.467 11.3953 13.5935 9.94809 13.5935V13.8935C11.4055 13.8935 12.5227 13.767 13.2805 13.5165C14.0306 13.2686 14.4903 12.8747 14.4903 12.306H14.1903Z" fill="#546681"/>
</svg>
